# xmcd
#
# Track frame offsets:
#	150
#	21021
#	38884
#	59865
#	81591
#	117367
#	134019
#	155510
#	167156
#	188184
#	204717
#	230660
#	248632
#	272325
#	285464
#	302892
#
# Disc length: 4260 seconds
#
# Revision: 0
# Processed by: cddbd v1.5.2PL0 Copyright (c) Steve Scherf et al.
# Submitted via: EasyCDDAExtractor 16.0.6.1
#
DISCID=ee10a210
DTITLE=Συλλογικός δίσκος - Happy birthday, Mikis!-Μ. Θεοδωράκης
DYEAR=2000
DGENRE=Ποικίλη
TTITLE0=Jocelyn B. Smith - Νύχτα μαγικιά [Γιάννης Θεοδωράκης]
TTITLE1=Jocelyn B. Smith - Μαργαρίτα μαγιοπούλα [Ιακ. Καμπανέλλης]
TTITLE2=Πανδής Πέτρος - Voy a vivir (I will live) [Pablo Neruda]
TTITLE3=Πανδής Πέτρος - Καϋμός [Δημ. Χριστοδούλου]
TTITLE4=Άνευ ερμηνευτού - Γειτονιά των αγγέλων [μπουζ. Αλέξ. Καρόζας]
TTITLE5=Maria del Mar Bonet - Όμορφη πόλη [Γιάννης Θεοδωράκης]
TTITLE6=Maria del Mar Bonet - Βρέχει στην φτωχογειτονιά [Τάσος Λειβαδίτης]
TTITLE7=Petr Migunov - Της νύχτας το όνειρο [Γιάννης Θεοδωράκης]
TTITLE8=Milva - Το τραίνο φεύγει [Thomas Woitkewitsch]
TTITLE9=Milva - Την πόρτα ανοίγω [Thomas Woitkewitsch]
TTITLE10=Φαραντούρη Μαρία - Νοέμβρης-Το γελαστό παιδί [Brendan Behan]
TTITLE11=Φαραντούρη Μαρία - Της δικαοσύνης Ήλιε νοητέ [Οδ. Ελύτης]
TTITLE12=Χορωδία - Στο περιγιάλι
TTITLE13=Θεοδωράκης Μίκης - Απρίλη μου [συν. 1997]
TTITLE14=Θεοδωράκης Μίκης - Ένα δειλινό [συν. 1997]
TTITLE15=Θεοδωράκης Μίκης - Βράχο, βράχο [συν. 1997]
EXTD=
EXTT0=
EXTT1=
EXTT2=
EXTT3=
EXTT4=
EXTT5=
EXTT6=
EXTT7=
EXTT8=
EXTT9=
EXTT10=
EXTT11=
EXTT12=
EXTT13=
EXTT14=
EXTT15=
PLAYORDER=
